<?xml version="1.0" encoding="UTF-8" standalone="no"?>
<!-- Created with Inkscape (http://www.inkscape.org/) -->

<svg
   xmlns:dc="http://purl.org/dc/elements/1.1/"
   xmlns:cc="http://creativecommons.org/ns#"
   xmlns:rdf="http://www.w3.org/1999/02/22-rdf-syntax-ns#"
   xmlns:svg="http://www.w3.org/2000/svg"
   xmlns="http://www.w3.org/2000/svg"
   xmlns:xlink="http://www.w3.org/1999/xlink"
   xmlns:sodipodi="http://sodipodi.sourceforge.net/DTD/sodipodi-0.dtd"
   xmlns:inkscape="http://www.inkscape.org/namespaces/inkscape"
   width="89mm"
   height="13mm"
   viewBox="0 0 315.35433 46.062992"
   id="svg10812"
   version="1.1"
   inkscape:version="0.91 r13725"
   sodipodi:docname="home_dim.svg">
  <defs
     id="defs10814">
    <linearGradient
       inkscape:collect="always"
       id="linearGradient19258">
      <stop
         style="stop-color:#333333;stop-opacity:1"
         offset="0"
         id="stop19260" />
      <stop
         style="stop-color:#ffffff;stop-opacity:0"
         offset="1"
         id="stop19262" />
    </linearGradient>
    <linearGradient
       inkscape:collect="always"
       xlink:href="#linearGradient19258"
       id="linearGradient19264"
       x1="2.9433427"
       y1="1040.4672"
       x2="13.651363"
       y2="1047.3876"
       gradientUnits="userSpaceOnUse" />
    <linearGradient
       inkscape:collect="always"
       xlink:href="#linearGradient19258"
       id="linearGradient19272"
       x1="29.154551"
       y1="1045.1616"
       x2="49.135921"
       y2="1049.2329"
       gradientUnits="userSpaceOnUse"
       gradientTransform="translate(4.6428571,-0.08928571)" />
    <linearGradient
       inkscape:collect="always"
       xlink:href="#linearGradient19258"
       id="linearGradient19280"
       x1="44.299202"
       y1="1033.4279"
       x2="52.024689"
       y2="1038.6511"
       gradientUnits="userSpaceOnUse" />
    <linearGradient
       inkscape:collect="always"
       xlink:href="#linearGradient19258"
       id="linearGradient19288"
       x1="2.4777133"
       y1="1008.2405"
       x2="23.228088"
       y2="1013.0173"
       gradientUnits="userSpaceOnUse" />
    <linearGradient
       inkscape:collect="always"
       xlink:href="#linearGradient19258"
       id="linearGradient19296"
       x1="17.509602"
       y1="1012.434"
       x2="30.863398"
       y2="1026.2286"
       gradientUnits="userSpaceOnUse"
       gradientTransform="translate(12.946428,-3.75)" />
    <linearGradient
       inkscape:collect="always"
       xlink:href="#linearGradient19258"
       id="linearGradient19323"
       x1="283.22003"
       y1="1038.1157"
       x2="303.6908"
       y2="1046.5757"
       gradientUnits="userSpaceOnUse" />
    <linearGradient
       inkscape:collect="always"
       xlink:href="#linearGradient19258"
       id="linearGradient19331"
       x1="293.00729"
       y1="1029.8345"
       x2="306.61487"
       y2="1034.9503"
       gradientUnits="userSpaceOnUse" />
    <linearGradient
       inkscape:collect="always"
       xlink:href="#linearGradient19258"
       id="linearGradient19339"
       x1="288.54709"
       y1="1012.2616"
       x2="305.54294"
       y2="1017.5171"
       gradientUnits="userSpaceOnUse"
       gradientTransform="translate(-0.64666434,-3.6652011)" />
    <linearGradient
       gradientTransform="translate(-0.06874541,-10.339455)"
       inkscape:collect="always"
       xlink:href="#linearGradient19258"
       id="linearGradient19331-6"
       x1="293.00729"
       y1="1029.8345"
       x2="306.61487"
       y2="1034.9503"
       gradientUnits="userSpaceOnUse" />
  </defs>
  <sodipodi:namedview
     id="base"
     pagecolor="#ffffff"
     bordercolor="#666666"
     borderopacity="1.0"
     inkscape:pageopacity="0.0"
     inkscape:pageshadow="2"
     inkscape:zoom="11.2"
     inkscape:cx="280.7943"
     inkscape:cy="24.196134"
     inkscape:document-units="px"
     inkscape:current-layer="layer1"
     showgrid="false"
     inkscape:window-width="1920"
     inkscape:window-height="1014"
     inkscape:window-x="0"
     inkscape:window-y="27"
     inkscape:window-maximized="1" />
  <metadata
     id="metadata10817">
    <rdf:RDF>
      <cc:Work
         rdf:about="">
        <dc:format>image/svg+xml</dc:format>
        <dc:type
           rdf:resource="http://purl.org/dc/dcmitype/StillImage" />
        <dc:title></dc:title>
      </cc:Work>
    </rdf:RDF>
  </metadata>
  <g
     inkscape:label="Calque 1"
     inkscape:groupmode="layer"
     id="layer1"
     transform="translate(0,-1006.2992)">
    <path
       style="fill:none;fill-rule:evenodd;stroke:#333333;stroke-width:0.80000001;stroke-linecap:butt;stroke-linejoin:round;stroke-miterlimit:4;stroke-dasharray:none;stroke-opacity:1"
       d="m 17.419666,1017.4214 c 7.736127,0.5208 13.597565,-0.2707 20.565999,1.1633 2.912588,12.0171 4.900224,10.5129 0.96207,24.334 -4.374197,0.8732 -11.55873,0.3042 -16.104129,0.3444 -8.329934,-0.5639 -12.791789,-6.1346 -20.7989038,-5.5218 0.2840239,-9.0019 -0.9662531,-13.1383 -0.9574111,-21.4997 10.3814369,-0.6712 0.4162746,0.033 16.3323749,1.1798 z"
       id="path17243"
       inkscape:connector-curvature="0"
       sodipodi:nodetypes="ccccccc" />
    <path
       style="fill:url(#linearGradient19288);fill-opacity:1;fill-rule:evenodd;stroke:#333333;stroke-width:0.80000001;stroke-linecap:butt;stroke-linejoin:round;stroke-miterlimit:4;stroke-dasharray:none;stroke-opacity:1"
       d="m 1.5152288,1007.6629 c 5.7722954,-0.3716 18.5939012,-0.7256 25.0367192,-0.2049 0.414645,3.05 0.978322,4.1511 -0.05876,8.6028 -11.475391,0.2727 -17.2411123,-1.9524 -25.1844887,-1.3563 -0.36379034,-2.5104 -0.65269182,-3.4882 0.2065315,-7.0416 z"
       id="path17245"
       inkscape:connector-curvature="0"
       sodipodi:nodetypes="ccccc" />
    <path
       style="fill:url(#linearGradient19272);fill-opacity:1;fill-rule:evenodd;stroke:#333333;stroke-width:0.80000001;stroke-linecap:butt;stroke-linejoin:round;stroke-miterlimit:4;stroke-dasharray:none;stroke-opacity:1"
       d="m 64.858044,1051.0556 c -3.088992,0.4487 -27.749138,0.079 -31.728369,0.1862 -0.117301,-3.0399 1.990272,-6.7569 1.990272,-6.7569 13.835318,0.3975 27.093933,1.1456 28.63823,-0.07 1.0101,2.2655 1.061084,2.9064 1.099867,6.6403 z"
       id="path17255"
       inkscape:connector-curvature="0"
       sodipodi:nodetypes="ccccc" />
    <path
       style="fill:url(#linearGradient19296);fill-opacity:1;fill-rule:evenodd;stroke:#333333;stroke-width:0.80000001;stroke-linecap:butt;stroke-linejoin:round;stroke-miterlimit:4;stroke-dasharray:none;stroke-opacity:1"
       d="m 28.943944,1007.5259 c 0.590095,3.5674 0.786597,3.5415 -0.196646,7.6582 -0.304411,1.6147 5.292148,-0.1155 10.279498,1.7247 2.652569,10.3138 2.526366,10.6094 4.321152,13.8476 3.007427,0.5777 4.034125,-0.4752 9.52393,-0.2132 -0.04193,-3.7244 -1.731789,-18.3749 -3.343526,-23.2404 -3.336038,0.2653 -17.657194,-0.1355 -20.584408,0.2231 z"
       id="path18585"
       inkscape:connector-curvature="0"
       sodipodi:nodetypes="ccccccc" />
    <path
       style="fill:url(#linearGradient19264);fill-opacity:1;fill-rule:evenodd;stroke:#333333;stroke-width:0.80000001;stroke-linecap:butt;stroke-linejoin:round;stroke-miterlimit:4;stroke-dasharray:none;stroke-opacity:1"
       d="m 1.4195977,1039.3576 c 0.1709565,3.3525 0.2115709,9.0926 0.4143105,11.7103 2.1083099,0.5227 17.0503608,0.6141 21.4448668,0.4907 -0.623665,-2.3316 -0.4552,-4.1702 -1.198889,-6.2512 -6.431071,0.2764 -11.023995,-6.2255 -20.6602883,-5.9498 z"
       id="path18591"
       inkscape:connector-curvature="0"
       sodipodi:nodetypes="ccccc" />
    <path
       style="fill:url(#linearGradient19280);fill-opacity:1;fill-rule:evenodd;stroke:#333333;stroke-width:0.80000001;stroke-linecap:butt;stroke-linejoin:round;stroke-miterlimit:4;stroke-dasharray:none;stroke-opacity:1"
       d="m 42.829506,1032.087 c 8.313014,0.5655 4.522052,-0.4324 15.42545,-0.1141 0.0691,2.6114 1.05883,8.9231 0.525404,11.8137 -2.597246,-0.1924 -14.622054,0.6272 -17.875807,-0.9366 0.825169,-3.0999 2.41474,-7.1316 1.924953,-10.763 z"
       id="path18593"
       inkscape:connector-curvature="0"
       sodipodi:nodetypes="ccccc" />
    <path
       style="fill:url(#linearGradient19323);fill-opacity:1;fill-rule:evenodd;stroke:#333333;stroke-width:0.8;stroke-linecap:butt;stroke-linejoin:miter;stroke-opacity:1;stroke-miterlimit:4;stroke-dasharray:none"
       d="m 314.10714,1051.38 c -10.16549,-0.2301 -22.83416,0.059 -33.09724,-0.2384 -4.02301,-1.8534 -2.38662,-6.6047 1.74112,-8.5187 8.75716,-0.1014 9.26381,-1.2112 12.45552,-2.0159 6.24419,0.5762 9.36135,-0.5211 15.58106,0.4835 4.34015,1.7686 3.32852,6.4299 3.31954,10.2895 z"
       id="path18610"
       inkscape:connector-curvature="0"
       sodipodi:nodetypes="cccccc" />
    <path
       style="fill:url(#linearGradient19331);fill-opacity:1;fill-rule:evenodd;stroke:#333333;stroke-width:0.8;stroke-linecap:butt;stroke-linejoin:miter;stroke-opacity:1;stroke-miterlimit:4;stroke-dasharray:none"
       d="m 294.5562,1029.5529 c -3.9577,0.5199 -3.67435,8.5339 2.21186,9.4725 3.36843,0.1245 9.07249,-0.3547 12.4339,-0.032 6.48477,-0.5742 5.66381,-8.3504 3.60783,-8.6485 -7.04374,-1.0216 -12.81442,-1.5065 -18.25359,-0.792 z"
       id="path18612"
       inkscape:connector-curvature="0"
       sodipodi:nodetypes="sccss" />
    <path
       style="fill:url(#linearGradient19339);fill-opacity:1;fill-rule:evenodd;stroke:#333333;stroke-width:0.8;stroke-linecap:butt;stroke-linejoin:miter;stroke-opacity:1;stroke-miterlimit:4;stroke-dasharray:none"
       d="m 286.82871,1016.6172 c -2.55972,-2.2213 -3.90362,-6.429 -0.48926,-8.8115 1.51168,-1.0548 24.65181,-0.4732 25.90182,0.6385 2.44269,2.1723 2.82629,6.9083 0.49708,8.9279 -1.034,0.8965 -24.65115,0.3372 -25.90964,-0.7549 z"
       id="path18624"
       inkscape:connector-curvature="0"
       sodipodi:nodetypes="sssss" />
    <path
       style="fill:url(#linearGradient19331-6);fill-opacity:1;fill-rule:evenodd;stroke:#333333;stroke-width:0.8;stroke-linecap:butt;stroke-linejoin:miter;stroke-opacity:1;stroke-miterlimit:4;stroke-dasharray:none"
       d="m 294.48746,1019.2134 c -3.97782,0.3326 -3.40649,7.4625 2.47972,8.4011 3.36843,0.1245 10.2332,-0.1762 14.3089,0.7715 4.5429,0.073 2.47377,-8.9409 1.10783,-9.0056 -10.45612,-0.4949 -12.94223,-0.5813 -17.89645,-0.167 z"
       id="path18612-2"
       inkscape:connector-curvature="0"
       sodipodi:nodetypes="sccss" />
  </g>
</svg>
