<?xml version="1.0" encoding="UTF-8" standalone="no"?>
<!-- Created with Inkscape (http://www.inkscape.org/) -->

<svg
   xmlns:dc="http://purl.org/dc/elements/1.1/"
   xmlns:cc="http://creativecommons.org/ns#"
   xmlns:rdf="http://www.w3.org/1999/02/22-rdf-syntax-ns#"
   xmlns:svg="http://www.w3.org/2000/svg"
   xmlns="http://www.w3.org/2000/svg"
   xmlns:sodipodi="http://sodipodi.sourceforge.net/DTD/sodipodi-0.dtd"
   xmlns:inkscape="http://www.inkscape.org/namespaces/inkscape"
   width="13mm"
   height="13mm"
   viewBox="0 0 46.062992 46.062992"
   id="svg10812"
   version="1.1"
   inkscape:version="0.91 r13725"
   sodipodi:docname="home_jour.svg">
  <defs
     id="defs10814" />
  <sodipodi:namedview
     id="base"
     pagecolor="#ffffff"
     bordercolor="#666666"
     borderopacity="1.0"
     inkscape:pageopacity="0.0"
     inkscape:pageshadow="2"
     inkscape:zoom="15.839192"
     inkscape:cx="14.50293"
     inkscape:cy="23.787865"
     inkscape:document-units="px"
     inkscape:current-layer="layer1"
     showgrid="false"
     inkscape:window-width="1920"
     inkscape:window-height="1014"
     inkscape:window-x="0"
     inkscape:window-y="27"
     inkscape:window-maximized="1" />
  <metadata
     id="metadata10817">
    <rdf:RDF>
      <cc:Work
         rdf:about="">
        <dc:format>image/svg+xml</dc:format>
        <dc:type
           rdf:resource="http://purl.org/dc/dcmitype/StillImage" />
        <dc:title></dc:title>
      </cc:Work>
    </rdf:RDF>
  </metadata>
  <g
     inkscape:label="Calque 1"
     inkscape:groupmode="layer"
     id="layer1"
     transform="translate(0,-1006.2992)">
    <path
       style="fill:none;fill-rule:evenodd;stroke:#5e5e5e;stroke-width:1px;stroke-linecap:butt;stroke-linejoin:miter;stroke-opacity:1"
       d="m 1.6414979,1016.2493 c 5.241159,0.6518 10.6323921,0.3441 15.8413031,0.7334 4.642048,0.3578 9.479397,0.7304 13.921133,-0.7004 2.528679,0.1181 5.217148,-0.3354 7.662453,0.2056 -0.08021,4.0862 -2.374677,7.8249 -1.23799,11.5334 -0.859679,4.7465 -0.694095,7.6253 -2.47933,12.1195 -4.374197,0.8732 -3.819108,0.1857 -8.364507,0.2259 -4.144753,-0.2562 -8.231003,0.7061 -12.273922,-0.3124 -4.7339681,-0.5498 -9.4417792,-1.9872 -14.28391074,-1.5488 0.90708624,-4.3031 0.27279713,-6.2999 1.39265214,-10.7267 -0.5565069,-3.8825 -0.1685745,-7.6 -0.1778823,-11.5295 0.3424288,0.064 -0.1900197,0.447 8e-7,0 z"
       id="path17243"
       inkscape:connector-curvature="0"
       sodipodi:nodetypes="cccccccccccc" />
    <path
       style="fill:none;fill-rule:evenodd;stroke:#5e5e5e;stroke-width:1px;stroke-linecap:butt;stroke-linejoin:miter;stroke-opacity:1"
       d="m 1.5152288,1007.6629 c 5.7722954,-0.3716 11.6073132,-0.2381 17.4251312,-0.2527 3.450359,0.1928 9.203758,4.5674 10.313249,7.7565 -4.04661,1.096 -9.603891,-0.9049 -12.669523,-0.1173 -3.971965,-0.024 -8.4508386,-0.8587 -12.373603,-0.5681 -6.3802882,1.6598 -3.55447752,-3.265 -2.6952542,-6.8184 z"
       id="path17245"
       inkscape:connector-curvature="0"
       sodipodi:nodetypes="cccccc" />
    <path
       style="fill:none;fill-rule:evenodd;stroke:#5e5e5e;stroke-width:1px;stroke-linecap:butt;stroke-linejoin:miter;stroke-opacity:1"
       d="m 32.501239,1014.664 c 5.779125,-0.1293 5.796501,0.056 11.50759,0.5584 1.385556,-3.2313 0.916955,-5.2235 -0.446,-8.1277 -2.789842,1.077 -10.285652,0.5717 -13.329456,0.1895 l -5.926582,0 c 4.383172,3.2555 6.696335,4.7377 8.194448,7.3798 z"
       id="path17247"
       inkscape:connector-curvature="0"
       sodipodi:nodetypes="cccccc" />
    <path
       style="fill:none;fill-rule:evenodd;stroke:#5e5e5e;stroke-width:1px;stroke-linecap:butt;stroke-linejoin:miter;stroke-opacity:1"
       d="m 10.919483,1041.8641 c 1.6715,-0.8539 9.320044,0.8095 14.230674,0.8836 5.977373,0.2729 5.34138,0.2703 9.905721,-0.6897 1.439117,2.0424 -0.507222,2.7709 -2.087571,8.5714 0.0046,1.1432 -20.27651,-0.9315 -21.730359,0.2807 -0.91004,-2.7622 -0.362412,-7.9208 -0.318465,-9.046 z"
       id="path17255"
       inkscape:connector-curvature="0"
       sodipodi:nodetypes="cccccc" />
    <path
       style="fill:none;fill-rule:evenodd;stroke:#000000;stroke-width:1px;stroke-linecap:butt;stroke-linejoin:miter;stroke-opacity:1"
       d="m 1.0101525,1051.1626 c 0.7295058,-1.9356 0.2692255,-4.0413 0.6049282,-6.0367 0.481952,-1.458 -0.5687087,-2.8953 -0.2496255,-4.3593 0.1203265,-0.6122 0.833719,-0.4642 1.2910506,-0.4607 1.3834435,0.1314 2.6349977,0.9196 4.0444715,0.8865 0.8310894,0.092 1.7962272,0.05 2.4305457,0.6908 0.4016857,0.5077 0.020045,1.1776 0.2205137,1.7471 0.2539614,1.4517 0.317483,2.9475 0.074961,4.4053 0.1622112,0.9117 0.2761145,1.9766 -0.3370619,2.7538 -0.5528073,0.5921 -1.4059491,0.3089 -2.1050744,0.2688 -1.7961133,-0.1472 -3.6051615,-0.2503 -5.4042082,-0.091 -0.1908498,0.063 -0.3781164,0.1366 -0.5705005,0.195 z"
       id="path17959"
       inkscape:connector-curvature="0" />
    <path
       style="fill:none;fill-rule:evenodd;stroke:#000000;stroke-width:1px;stroke-linecap:butt;stroke-linejoin:miter;stroke-opacity:1"
       d="m 34.597724,1050.6576 c 1.067369,-3.8428 3.194803,-6.2394 2.973899,-10.1606 -0.553652,-3.0382 3.811051,-18.4146 2.881249,-22.9111 0.27069,-2.7861 2.90528,-0.056 4.718925,-0.8665 0.225967,2.0513 0.190952,17.1287 -0.432421,20.2177 0.345517,8.6691 0.430474,8.2246 0.548762,11.4997 -1.244898,2.1859 0.0199,2.1078 -1.971601,2.552 -1.055985,0.089 -7.685009,-0.5163 -8.718813,-0.3312 z"
       id="path17968"
       inkscape:connector-curvature="0"
       sodipodi:nodetypes="cccccccc" />
  </g>
</svg>
