<?xml version="1.0" encoding="UTF-8" standalone="no"?>
<!-- Created with Inkscape (http://www.inkscape.org/) -->

<svg
   xmlns:dc="http://purl.org/dc/elements/1.1/"
   xmlns:cc="http://creativecommons.org/ns#"
   xmlns:rdf="http://www.w3.org/1999/02/22-rdf-syntax-ns#"
   xmlns:svg="http://www.w3.org/2000/svg"
   xmlns="http://www.w3.org/2000/svg"
   xmlns:xlink="http://www.w3.org/1999/xlink"
   xmlns:sodipodi="http://sodipodi.sourceforge.net/DTD/sodipodi-0.dtd"
   xmlns:inkscape="http://www.inkscape.org/namespaces/inkscape"
   width="89mm"
   height="13mm"
   viewBox="0 0 315.35433 46.062992"
   id="svg10812"
   version="1.1"
   inkscape:version="0.91 r13725"
   sodipodi:docname="home_sam.svg">
  <defs
     id="defs10814">
    <linearGradient
       inkscape:collect="always"
       id="linearGradient19258">
      <stop
         style="stop-color:#333333;stop-opacity:1"
         offset="0"
         id="stop19260" />
      <stop
         style="stop-color:#ffffff;stop-opacity:0"
         offset="1"
         id="stop19262" />
    </linearGradient>
    <linearGradient
       inkscape:collect="always"
       xlink:href="#linearGradient19258"
       id="linearGradient19264"
       x1="1.3361996"
       y1="1043.3243"
       x2="12.490649"
       y2="1048.2804"
       gradientUnits="userSpaceOnUse" />
    <linearGradient
       inkscape:collect="always"
       xlink:href="#linearGradient19258"
       id="linearGradient19272"
       x1="19.958122"
       y1="1045.4294"
       x2="45.832352"
       y2="1048.9651"
       gradientUnits="userSpaceOnUse" />
    <linearGradient
       inkscape:collect="always"
       xlink:href="#linearGradient19258"
       id="linearGradient19280"
       x1="42.513489"
       y1="1030.1243"
       x2="48.185402"
       y2="1039.0083"
       gradientUnits="userSpaceOnUse" />
    <linearGradient
       inkscape:collect="always"
       xlink:href="#linearGradient19258"
       id="linearGradient19288"
       x1="2.4777133"
       y1="1008.2405"
       x2="23.228088"
       y2="1013.0173"
       gradientUnits="userSpaceOnUse" />
    <linearGradient
       inkscape:collect="always"
       xlink:href="#linearGradient19258"
       id="linearGradient19296"
       x1="36.616745"
       y1="1008.3269"
       x2="43.809826"
       y2="1021.3179"
       gradientUnits="userSpaceOnUse" />
    <linearGradient
       inkscape:collect="always"
       xlink:href="#linearGradient19258"
       id="linearGradient19323"
       x1="283.22003"
       y1="1038.1157"
       x2="303.6908"
       y2="1046.5757"
       gradientUnits="userSpaceOnUse" />
    <linearGradient
       inkscape:collect="always"
       xlink:href="#linearGradient19258"
       id="linearGradient19331"
       x1="293.63229"
       y1="1024.6559"
       x2="306.25772"
       y2="1030.8431"
       gradientUnits="userSpaceOnUse" />
    <linearGradient
       inkscape:collect="always"
       xlink:href="#linearGradient19258"
       id="linearGradient19339"
       x1="303.18994"
       y1="1012.1723"
       x2="309.38223"
       y2="1017.16"
       gradientUnits="userSpaceOnUse"
       gradientTransform="translate(-0.3788072,0.44194174)" />
  </defs>
  <sodipodi:namedview
     id="base"
     pagecolor="#ffffff"
     bordercolor="#666666"
     borderopacity="1.0"
     inkscape:pageopacity="0.0"
     inkscape:pageshadow="2"
     inkscape:zoom="7.919596"
     inkscape:cx="76.879527"
     inkscape:cy="20.654989"
     inkscape:document-units="px"
     inkscape:current-layer="layer1"
     showgrid="false"
     inkscape:window-width="1920"
     inkscape:window-height="1014"
     inkscape:window-x="0"
     inkscape:window-y="27"
     inkscape:window-maximized="1" />
  <metadata
     id="metadata10817">
    <rdf:RDF>
      <cc:Work
         rdf:about="">
        <dc:format>image/svg+xml</dc:format>
        <dc:type
           rdf:resource="http://purl.org/dc/dcmitype/StillImage" />
        <dc:title></dc:title>
      </cc:Work>
    </rdf:RDF>
  </metadata>
  <g
     inkscape:label="Calque 1"
     inkscape:groupmode="layer"
     id="layer1"
     transform="translate(0,-1006.2992)">
    <path
       style="fill:none;fill-rule:evenodd;stroke:#333333;stroke-width:0.80000001;stroke-linecap:butt;stroke-linejoin:round;stroke-miterlimit:4;stroke-dasharray:none;stroke-opacity:1"
       d="m 17.419666,1017.4214 c 7.736127,0.5208 9.311851,-1.61 16.280285,-0.176 -0.08021,4.0862 1.792202,8.8983 6.211885,11.0284 0.781819,4.6202 0.374705,10.1061 -0.964101,14.6449 -4.374197,0.8732 -15.398016,0.4828 -19.943415,0.523 -8.329934,-0.5639 -9.8453606,-2.5632 -17.8524749,-1.9504 0.2840239,-9.0019 -0.073396,-16.8883 -0.064554,-25.2497 10.3814368,-0.6712 0.4162746,0.033 16.3323748,1.1798 z"
       id="path17243"
       inkscape:connector-curvature="0"
       sodipodi:nodetypes="cccccccc" />
    <path
       style="fill:url(#linearGradient19288);fill-rule:evenodd;stroke:#333333;stroke-width:0.80000001;stroke-linecap:butt;stroke-linejoin:round;stroke-miterlimit:4;stroke-dasharray:none;stroke-opacity:1;fill-opacity:1"
       d="m 1.5152288,1007.6629 c 5.7722954,-0.3716 23.8617582,-0.4577 30.3045762,0.063 3.450359,0.1928 2.764036,3.2582 1.726952,7.7099 -10.412047,-1.1235 -17.252143,1.8974 -24.7387315,-1.0145 -3.971965,-0.024 -3.5765638,-0.01 -7.4993282,0.2832 -0.36379034,-2.5104 -0.65269182,-3.4882 0.2065315,-7.0416 z"
       id="path17245"
       inkscape:connector-curvature="0"
       sodipodi:nodetypes="cccccc" />
    <path
       style="fill:url(#linearGradient19272);fill-rule:evenodd;stroke:#333333;stroke-width:0.8;stroke-linecap:butt;stroke-linejoin:round;stroke-miterlimit:4;stroke-dasharray:none;stroke-opacity:1;fill-opacity:1"
       d="m 60.215187,1051.1449 c -3.088992,0.4487 -35.338424,0.2576 -39.317655,0.3647 -1.099444,-2.4149 -0.678084,-4.8272 -1.581156,-6.489 6.357351,0.014 18.356944,0.3016 20.691801,-0.8731 2.043203,0.9457 8.733336,1.7018 16.829965,1.345 3.205483,0.1034 3.778555,1.7088 3.377045,5.6524 z"
       id="path17255"
       inkscape:connector-curvature="0"
       sodipodi:nodetypes="cccccc" />
    <path
       style="fill:url(#linearGradient19296);fill-rule:evenodd;stroke:#333333;stroke-width:0.80000001;stroke-linecap:butt;stroke-linejoin:round;stroke-miterlimit:4;stroke-dasharray:none;stroke-opacity:1;fill-opacity:1"
       d="m 35.729659,1007.6152 c 0.590095,3.5674 0.697311,4.7022 -0.285932,8.8189 -0.608822,3.2294 2.439649,11.328 11.029221,12.2687 3.007427,0.5777 2.248411,-8.868 -1.011784,-11.4632 0.225927,-3.5458 0.500354,-4.982 -1.111383,-9.8475 -3.336038,0.2653 -5.692908,-0.1355 -8.620122,0.2231 z"
       id="path18585"
       inkscape:connector-curvature="0"
       sodipodi:nodetypes="cccccc" />
    <path
       style="fill:url(#linearGradient19264);fill-rule:evenodd;stroke:#333333;stroke-width:0.80000001;stroke-linecap:butt;stroke-linejoin:round;stroke-miterlimit:4;stroke-dasharray:none;stroke-opacity:1;fill-opacity:1"
       d="m 0.88388347,1043.0183 c 1.15309933,2.7275 0.74728513,5.4319 0.95002473,8.0496 2.1083099,0.5227 12.5860748,0.4355 16.9805808,0.3121 -0.623665,-2.3316 -0.4552,-4.1702 -1.198889,-6.2512 -4.78288,-0.1269 -11.1773231,-2.3009 -16.73171613,-2.114 l -4e-7,0 z"
       id="path18591"
       inkscape:connector-curvature="0"
       sodipodi:nodetypes="ccccccc" />
    <path
       style="fill:url(#linearGradient19280);fill-rule:evenodd;stroke:#333333;stroke-width:0.80000001;stroke-linecap:butt;stroke-linejoin:round;stroke-miterlimit:4;stroke-dasharray:none;stroke-opacity:1;fill-opacity:1"
       d="m 41.668792,1029.0513 c 2.645104,1.4311 3.272293,0.6257 4.702076,1.2528 1.079431,0.823 1.221169,2.29 1.29774,3.5455 0.08711,1.8461 5.38823,1.3513 4.961348,3.1233 -0.297158,1.2903 -0.266728,5.8599 -0.01031,7.1708 -2.597246,-0.1924 -10.068483,-0.087 -11.715093,-1.7401 0.825169,-3.0999 1.254026,-9.7209 0.764239,-13.3523 z"
       id="path18593"
       inkscape:connector-curvature="0"
       sodipodi:nodetypes="ccccccc" />
    <path
       style="fill:url(#linearGradient19323);fill-rule:evenodd;stroke:#333333;stroke-width:1px;stroke-linecap:butt;stroke-linejoin:miter;stroke-opacity:1;fill-opacity:1"
       d="m 314.10714,1051.38 c -10.16549,-0.2301 -19.61987,0.4162 -29.88295,0.1187 -4.02301,-1.8534 -4.4402,-10.3547 -0.31246,-12.2687 8.75716,-0.1014 8.1031,-1.3004 11.29481,-2.1051 6.24419,0.5762 9.45064,-0.6997 15.67035,0.3049 4.34015,1.7686 3.23923,10.0906 3.23025,13.9502 z"
       id="path18610"
       inkscape:connector-curvature="0"
       sodipodi:nodetypes="cccccc" />
    <path
       style="fill:url(#linearGradient19331);fill-rule:evenodd;stroke:#333333;stroke-width:1px;stroke-linecap:butt;stroke-linejoin:miter;stroke-opacity:1;fill-opacity:1"
       d="m 295.00263,1023.66 c -3.9577,0.5199 -4.38864,11.0339 1.49757,11.9725 3.36843,0.1245 9.07249,-0.3547 12.4339,-0.032 6.48477,-0.5742 6.30235,-10.5203 4.32212,-11.1485 -6.59731,-2.093 -12.81442,-1.5065 -18.25359,-0.792 z"
       id="path18612"
       inkscape:connector-curvature="0"
       sodipodi:nodetypes="sccss" />
    <path
       style="fill:url(#linearGradient19339);fill-opacity:1;fill-rule:evenodd;stroke:#333333;stroke-width:1px;stroke-linecap:butt;stroke-linejoin:miter;stroke-opacity:1"
       d="m 302.18586,1020.7243 c -2.55972,-2.2213 -3.90362,-6.429 -0.48926,-8.8115 1.51168,-1.0548 9.56252,-0.4732 10.81253,0.6385 2.44269,2.1723 2.82629,6.9083 0.49708,8.9279 -1.034,0.8965 -9.56186,0.3372 -10.82035,-0.7549 z"
       id="path18624"
       inkscape:connector-curvature="0"
       sodipodi:nodetypes="sssss" />
  </g>
</svg>
