<?xml version="1.0" encoding="UTF-8" standalone="no"?>
<!-- Created with Inkscape (http://www.inkscape.org/) -->

<svg
   xmlns:dc="http://purl.org/dc/elements/1.1/"
   xmlns:cc="http://creativecommons.org/ns#"
   xmlns:rdf="http://www.w3.org/1999/02/22-rdf-syntax-ns#"
   xmlns:svg="http://www.w3.org/2000/svg"
   xmlns="http://www.w3.org/2000/svg"
   xmlns:sodipodi="http://sodipodi.sourceforge.net/DTD/sodipodi-0.dtd"
   xmlns:inkscape="http://www.inkscape.org/namespaces/inkscape"
   width="89mm"
   height="13mm"
   viewBox="0 0 315.35433 46.062992"
   id="svg10812"
   version="1.1"
   inkscape:version="0.91 r13725"
   sodipodi:docname="home_week.svg">
  <defs
     id="defs10814" />
  <sodipodi:namedview
     id="base"
     pagecolor="#ffffff"
     bordercolor="#666666"
     borderopacity="1.0"
     inkscape:pageopacity="0.0"
     inkscape:pageshadow="2"
     inkscape:zoom="5.6"
     inkscape:cx="160.37735"
     inkscape:cy="30.413154"
     inkscape:document-units="px"
     inkscape:current-layer="layer1"
     showgrid="false"
     inkscape:window-width="1920"
     inkscape:window-height="1014"
     inkscape:window-x="0"
     inkscape:window-y="27"
     inkscape:window-maximized="1" />
  <metadata
     id="metadata10817">
    <rdf:RDF>
      <cc:Work
         rdf:about="">
        <dc:format>image/svg+xml</dc:format>
        <dc:type
           rdf:resource="http://purl.org/dc/dcmitype/StillImage" />
        <dc:title />
      </cc:Work>
    </rdf:RDF>
  </metadata>
  <g
     inkscape:label="Calque 1"
     inkscape:groupmode="layer"
     id="layer1"
     transform="translate(0,-1006.2992)">
    <path
       style="fill:none;fill-rule:evenodd;stroke:#5e5e5e;stroke-width:1px;stroke-linecap:butt;stroke-linejoin:miter;stroke-opacity:1"
       d="m 1.5783634,1016.3755 c 5.241159,0.6518 10.6323916,0.3441 15.8413026,0.7334 7.736127,1.4583 9.311851,-1.2975 16.280285,0.1365 -0.08021,4.0862 1.792202,8.8983 6.211885,11.0284 0.781819,4.6202 0.821134,10.1507 -0.964101,14.6449 -4.374197,0.8732 -7.228373,0.4382 -11.773772,0.4784 -4.144753,-0.2562 -8.231003,0.7061 -12.273922,-0.3124 -4.733968,-0.5498 -9.4417786,-1.9872 -14.28391014,-1.5488 0.90708624,-4.3031 0.020259,-9.2041 1.14011404,-13.6309 -0.5565069,-3.8825 -0.1685745,-7.6 -0.1778823,-11.5295 0.3424288,0.064 -0.1900197,0.447 8e-7,0 z"
       id="path17243"
       inkscape:connector-curvature="0"
       sodipodi:nodetypes="ccccccccccc" />
    <path
       style="fill:none;fill-rule:evenodd;stroke:#5e5e5e;stroke-width:1px;stroke-linecap:butt;stroke-linejoin:miter;stroke-opacity:1"
       d="m 1.5152288,1007.6629 c 5.7722954,-0.3716 24.4867582,0.078 30.3045762,0.063 3.450359,0.1928 2.764036,2.2314 1.726952,6.6831 -3.983476,2.3587 -16.359286,0.7367 -18.667303,0.3248 -3.971965,-0.024 -6.7462066,-0.5431 -10.668971,-0.2525 -4.73879032,1.5967 -3.55447752,-3.265 -2.6952542,-6.8184 z"
       id="path17245"
       inkscape:connector-curvature="0"
       sodipodi:nodetypes="cccccc" />
    <path
       style="fill:none;fill-rule:evenodd;stroke:#5e5e5e;stroke-width:1px;stroke-linecap:butt;stroke-linejoin:miter;stroke-opacity:1"
       d="m 19.821452,1045.2103 c 9.41468,-0.5115 17.086786,0.3863 20.032651,-0.8166 3.522556,1.4742 20.95852,-0.5122 16.789655,6.9298 0.0046,1.1432 -31.766995,0.079 -35.746226,0.1861 -1.099444,-2.4149 -1.120026,-5.1744 -1.07608,-6.2996 z"
       id="path17255"
       inkscape:connector-curvature="0"
       sodipodi:nodetypes="cccccc" />
    <path
       style="fill:none;fill-rule:evenodd;stroke:#000000;stroke-width:1px;stroke-linecap:butt;stroke-linejoin:miter;stroke-opacity:1"
       d="m 36.176088,1007.3473 c -0.838009,3.9542 -0.776188,8.0954 0.07121,12.0332 0.78256,1.6933 0.831033,3.7245 2.10065,5.1705 1.929177,1.3076 3.535707,3.5093 6.023479,3.6985 2.94412,0.1357 0.993335,-3.4794 1.402237,-5.1617 -0.141843,-3.2293 0.494366,-6.4589 -0.165831,-9.6623 -0.526298,-2.0184 -0.614602,-4.1609 -1.258052,-6.0334 -2.084493,-0.4112 -4.326161,0.4094 -6.386295,-0.4306 -0.618877,-0.033 -1.216916,0.171 -1.787397,0.3858 z"
       id="path18585"
       inkscape:connector-curvature="0" />
    <path
       style="fill:none;fill-rule:evenodd;stroke:#000000;stroke-width:1px;stroke-linecap:butt;stroke-linejoin:miter;stroke-opacity:1"
       d="m 0.88388347,1043.0183 c 1.15309933,2.7275 0.74728513,5.4319 0.95002473,8.0496 2.1083099,0.5227 16.5319828,1.3194 16.2229668,-0.2561 -0.181724,-2.3 0.302414,-3.602 -0.441275,-5.683 -2.446902,0.1572 -14.4918861,-1.9852 -16.73171613,-2.114 l -4e-7,0 z"
       id="path18591"
       inkscape:connector-curvature="0"
       sodipodi:nodetypes="ccccccc" />
    <path
       style="fill:none;fill-rule:evenodd;stroke:#000000;stroke-width:1px;stroke-linecap:butt;stroke-linejoin:miter;stroke-opacity:1"
       d="m 41.668792,1032.9799 c -0.301325,-4.3725 3.272293,-3.3029 4.702076,-2.6758 1.079431,0.823 1.221169,2.29 1.29774,3.5455 0.08711,1.8461 5.38823,1.3513 4.961348,3.1233 -0.297158,1.2903 -0.266728,5.8599 -0.01031,7.1708 -2.597246,-0.1924 -10.157769,0.315 -11.804379,-1.3383 -0.464266,-1.0666 0.708771,-2.0976 0.634219,-3.1919 0.0348,-2.4236 -0.0076,-4.4897 0.219308,-6.6336 z"
       id="path18593"
       inkscape:connector-curvature="0"
       sodipodi:nodetypes="cccccccc" />
    <path
       style="fill:none;fill-rule:evenodd;stroke:#000000;stroke-width:1px;stroke-linecap:butt;stroke-linejoin:miter;stroke-opacity:1"
       d="m 314.10714,1051.38 c -4.49383,-0.3286 -9.01834,0 -13.49387,-0.5326 -5.46723,-0.055 -10.95948,-0.082 -16.38908,0.6513 -3.2654,-1.0327 -3.11437,-11.3649 -1.57515,-13.6577 3.01192,-0.9852 6.33533,0.5937 9.52704,-0.211 6.24419,0.5762 12.4811,-1.2048 18.70081,-0.2002 4.06623,-0.3889 4.64105,10.577 3.47582,13.3433 l -0.24557,0.6069 z"
       id="path18610"
       inkscape:connector-curvature="0"
       sodipodi:nodetypes="ccccccccc" />
    <path
       style="fill:none;fill-rule:evenodd;stroke:#000000;stroke-width:1px;stroke-linecap:butt;stroke-linejoin:miter;stroke-opacity:1"
       d="m 296.51786,1023.3443 c -0.21813,2.8398 -1.10259,6.5559 -0.93353,9.3601 -0.25209,2.7433 2.53039,2.6098 4.4514,2.6124 3.36843,0.1245 8.25174,-0.039 11.61315,0.2834 2.69208,-0.5881 1.95072,-4.7255 2.02394,-6.7685 -0.63602,-2.0106 0.68696,-5.7821 -2.12123,-6.274 -3.03134,-0.031 -6.10562,-0.4823 -9.12095,0.01 -1.87667,0.922 -4.10153,-0.3019 -5.82191,0.4922 l -0.0909,0.2831 0,0 z"
       id="path18612"
       inkscape:connector-curvature="0"
       sodipodi:nodetypes="ccccccccccc" />
    <path
       style="fill:none;fill-rule:evenodd;stroke:#000000;stroke-width:1px;stroke-linecap:butt;stroke-linejoin:miter;stroke-opacity:1"
       d="m 307.67857,1020.2193 c -0.0825,-1.4591 -0.40552,-2.909 -0.27176,-4.3754 -0.0351,-1.7329 0.0941,-3.4703 -0.0681,-5.1995 -0.32204,-0.9948 -0.41161,-2.2703 0.35567,-3.0878 0.43156,-0.4818 1.06782,-0.3692 1.62066,-0.2471 1.28461,0.2004 2.58767,0.3258 3.88857,0.2544 0.84265,0.1166 1.20865,1.0304 1.20522,1.7865 0.029,1.0345 -0.29926,2.0377 -0.30594,3.0724 -0.0937,1.6631 0.005,3.3353 -0.19073,4.9927 -0.6562,1.119 0.16926,2.5226 -0.52714,3.622 -0.27877,0.5941 -0.88315,0.2275 -1.35996,0.1996 -1.19248,-0.2028 -2.40109,-0.3213 -3.58621,-0.5586 -0.2833,-0.092 -0.55781,-0.2364 -0.76027,-0.4592 z"
       id="path18624"
       inkscape:connector-curvature="0" />
  </g>
</svg>
